<mxfile host="Electron" agent="Mozilla/5.0 (Windows NT 10.0; Win64; x64) AppleWebKit/537.36 (KHTML, like Gecko) draw.io/24.7.8 Chrome/128.0.6613.36 Electron/32.0.1 Safari/537.36" version="24.7.8">
  <diagram name="Page-1" id="za5py0FPynRvcaxtpMyV">
    <mxGraphModel dx="1434" dy="836" grid="1" gridSize="10" guides="1" tooltips="1" connect="1" arrows="1" fold="1" page="1" pageScale="1" pageWidth="1100" pageHeight="850" math="0" shadow="0">
      <root>
        <mxCell id="0" />
        <mxCell id="1" parent="0" />
        <mxCell id="W27nBY-WZ1jYI2XlI_6z-1" value="Slave&lt;div&gt;SoC&lt;/div&gt;" style="rounded=0;whiteSpace=wrap;html=1;snapToPoint=1;arcSize=12;" vertex="1" parent="1">
          <mxGeometry x="360" y="80" width="120" height="160" as="geometry" />
        </mxCell>
        <mxCell id="W27nBY-WZ1jYI2XlI_6z-2" value="" style="shape=flexArrow;endArrow=classic;startArrow=classic;html=1;rounded=0;entryX=0;entryY=0.25;entryDx=0;entryDy=0;startWidth=12;startSize=5.5566666666666675;width=7.333333333333333;endWidth=12;endSize=5.5566666666666675;" edge="1" parent="1" target="W27nBY-WZ1jYI2XlI_6z-1">
          <mxGeometry width="100" height="100" relative="1" as="geometry">
            <mxPoint x="280" y="120" as="sourcePoint" />
            <mxPoint x="290" y="100" as="targetPoint" />
          </mxGeometry>
        </mxCell>
        <mxCell id="W27nBY-WZ1jYI2XlI_6z-3" value="" style="shape=flexArrow;endArrow=classic;startArrow=classic;html=1;rounded=0;entryX=0;entryY=0.75;entryDx=0;entryDy=0;startWidth=12;startSize=5.5566666666666675;width=7.333333333333333;endWidth=12;endSize=5.5566666666666675;" edge="1" parent="1" target="W27nBY-WZ1jYI2XlI_6z-1">
          <mxGeometry width="100" height="100" relative="1" as="geometry">
            <mxPoint x="280" y="200" as="sourcePoint" />
            <mxPoint x="320" y="195" as="targetPoint" />
          </mxGeometry>
        </mxCell>
        <mxCell id="W27nBY-WZ1jYI2XlI_6z-4" value="Accelerometer" style="rounded=0;whiteSpace=wrap;html=1;" vertex="1" parent="1">
          <mxGeometry x="160" y="90" width="120" height="61.5" as="geometry" />
        </mxCell>
        <mxCell id="W27nBY-WZ1jYI2XlI_6z-5" value="Wheel speed sensor" style="rounded=0;whiteSpace=wrap;html=1;" vertex="1" parent="1">
          <mxGeometry x="160" y="170" width="120" height="61.5" as="geometry" />
        </mxCell>
      </root>
    </mxGraphModel>
  </diagram>
</mxfile>
